<!DOCTYPE svg PUBLIC "-//W3C//DTD SVG 20010904//EN" "http://www.w3.org/TR/2001/REC-SVG-20010904/DTD/svg10.dtd">
<svg version="1.0" xmlns="http://www.w3.org/2000/svg" width="335px" height="250px" viewBox="0 0 3350 2500" preserveAspectRatio="xMidYMid meet">
<g id="layer101" fill="#3c3b6e" stroke="none">
<path d="M377 1190 c-3 -12 -14 -20 -26 -20 -12 0 -21 -6 -21 -15 0 -9 -11 -20 -24 -25 -18 -7 -23 -14 -19 -30 4 -14 -2 -27 -18 -41 -20 -17 -21 -22 -9 -30 11 -8 12 -12 3 -16 -16 -6 -18 -189 -3 -198 6 -3 10 -24 10 -46 l0 -39 -63 0 c-80 0 -103 -19 -93 -77 4 -21 6 -45 6 -53 -1 -8 -3 -52 -6 -97 -4 -62 -2 -86 8 -96 21 -20 67 -37 100 -37 17 0 73 -20 124 -45 51 -24 100 -42 107 -39 8 3 30 -9 48 -25 18 -17 37 -31 41 -31 5 0 8 -7 8 -15 0 -26 42 -66 62 -59 14 4 18 0 18 -19 0 -34 40 -77 72 -77 37 0 103 67 115 116 8 34 12 39 35 36 14 -2 29 2 33 7 3 6 14 11 23 11 10 0 24 10 32 21 8 12 21 28 29 36 12 12 12 16 1 23 -9 6 -4 12 18 24 17 9 38 16 48 16 10 0 14 5 11 15 -6 15 42 45 73 45 11 0 17 7 16 17 -1 12 16 24 54 39 30 12 69 35 85 50 17 16 45 40 63 52 17 13 32 29 32 36 0 11 115 126 126 126 2 0 23 18 46 40 l43 40 115 0 c114 0 275 -17 400 -42 81 -17 224 -1 325 34 63 22 165 71 165 79 0 5 6 9 14 9 18 0 72 56 92 96 39 73 60 152 56 207 -2 16 -66 17 -1186 17 -1175 0 -1184 0 -1189 -20z"/>
</g>
<g id="layer102" fill="#3c3b6e" stroke="none">
<path d="M410 1202 c-8 -3 -19 -11 -23 -18 -4 -8 -19 -14 -32 -14 -18 0 -25 -6 -25 -19 0 -10 -8 -21 -19 -24 -14 -3 -17 -11 -14 -29 3 -18 -2 -27 -21 -38 -20 -10 -23 -16 -15 -27 8 -9 8 -17 0 -26 -12 -15 -13 -169 -1 -177 4 -3 9 -26 12 -52 l6 -48 -64 0 c-56 0 -65 -3 -84 -27 -12 -15 -18 -33 -14 -42 11 -29 17 -91 8 -91 -5 0 -10 -35 -11 -78 l-1 -78 40 -17 c21 -10 58 -19 80 -21 22 -3 45 -9 51 -15 6 -6 17 -11 24 -11 6 0 35 -13 63 -30 28 -17 65 -30 83 -30 21 0 38 -7 47 -20 8 -11 20 -20 26 -20 7 0 16 -13 22 -28 14 -40 40 -64 63 -57 15 5 19 1 19 -17 0 -32 54 -88 79 -81 34 9 101 78 101 104 0 33 15 53 33 46 21 -8 95 33 103 55 3 10 10 18 15 18 6 0 7 9 4 20 -4 14 -2 20 9 20 8 0 27 13 43 28 34 35 65 52 91 52 14 0 19 5 16 18 -5 17 33 42 63 42 18 0 83 43 112 74 13 14 27 26 33 26 13 0 38 26 38 41 0 14 60 73 117 116 21 15 48 40 60 54 19 23 33 28 95 33 94 8 298 -11 473 -43 33 -6 76 -8 95 -5 19 2 64 10 100 15 72 12 244 74 261 95 6 8 18 14 26 14 46 0 153 187 153 267 0 56 39 53 -603 52 -402 0 -596 -4 -604 -11 -9 -7 -13 -7 -13 0 0 10 -1089 14 -1120 4z"/>
</g>
<g id="layer103" fill="#b22234" stroke="none">
<path d="M992 2395 c-59 -26 -53 -55 20 -101 21 -14 38 -31 38 -39 0 -9 7 -26 15 -38 8 -13 17 -61 21 -112 4 -50 10 -94 14 -100 15 -19 50 -204 50 -260 l0 -55 -45 0 c-39 0 -45 3 -51 24 -3 13 0 34 7 47 9 17 9 24 0 27 -6 2 -11 10 -11 18 0 18 -14 18 -57 -3 -33 -15 -37 -15 -48 0 -6 9 -18 42 -25 74 -7 32 -17 62 -22 67 -4 6 -8 22 -8 37 0 15 -5 29 -10 31 -6 2 -16 36 -24 76 -8 41 -25 89 -39 110 -13 20 -34 63 -47 95 -27 68 -34 71 -161 65 -79 -4 -93 -7 -115 -29 l-24 -25 30 -29 c28 -27 38 -30 93 -30 l62 0 26 -48 c25 -47 26 -57 31 -245 5 -184 0 -250 -21 -238 -4 3 -16 -1 -27 -8 -16 -12 -17 -17 -6 -41 7 -15 10 -30 6 -34 -4 -3 -9 0 -11 7 -3 6 -18 12 -34 12 -21 0 -33 7 -40 23 -8 19 -9 17 -5 -10 4 -25 2 -33 -9 -33 -10 0 -15 -10 -15 -29 0 -16 -6 -31 -12 -34 -10 -3 -10 -9 -1 -25 10 -17 9 -19 -8 -15 -17 5 -19 0 -19 -40 0 -25 5 -49 10 -52 18 -11 11 -27 -10 -20 -18 6 -18 4 -9 -25 6 -17 8 -41 5 -55 -3 -13 -1 -35 6 -49 l11 -26 1116 2 1116 3 7 45 c4 25 12 84 18 133 7 48 16 90 21 93 5 3 9 15 9 27 0 12 18 55 40 94 39 69 85 113 168 161 26 14 98 16 107 2 9 -14 61 -12 87 3 27 15 47 38 48 54 0 17 -66 36 -103 30 -163 -27 -253 -80 -356 -209 -36 -46 -47 -54 -49 -38 -4 23 59 160 83 180 55 45 80 124 95 290 5 58 12 125 15 150 7 43 5 46 -27 65 -26 15 -48 19 -103 16 -78 -3 -99 -13 -89 -45 11 -36 36 -56 70 -56 18 0 35 -4 38 -9 8 -12 -23 -109 -44 -141 -9 -14 -34 -55 -54 -92 -38 -68 -66 -88 -66 -46 0 34 -21 140 -34 168 -6 14 -28 50 -48 81 -21 31 -38 61 -38 66 0 25 -38 43 -90 43 -104 0 -165 -36 -138 -80 17 -27 40 -33 83 -21 33 9 37 7 59 -22 22 -30 37 -77 38 -122 1 -57 -43 -145 -109 -222 -47 -52 -58 -67 -93 -118 -19 -28 -37 -51 -42 -53 -4 -2 -8 -8 -8 -14 0 -11 -48 -81 -83 -120 -25 -29 -70 -38 -83 -17 -26 43 -214 129 -282 129 -15 0 -32 4 -37 8 -24 20 -96 35 -162 35 -40 -1 -73 3 -73 8 0 5 -8 9 -19 9 -10 0 -21 9 -24 20 -6 22 -36 27 -55 8 -10 -10 -12 -6 -10 22 3 31 0 35 -24 38 -35 4 -40 12 -73 107 -15 44 -34 92 -41 107 -8 15 -14 49 -14 75 0 26 -4 64 -9 83 -6 19 -12 68 -15 109 -6 102 -18 111 -133 111 -53 -1 -101 -6 -121 -15z"/>
</g>
<g id="layer104" fill="#b22234" stroke="none">
</g>
<g id="layer105" fill="#3c3b6e" stroke="none">
<path d="M530 1116 c0 -2 6 -22 14 -44 l15 -41 -42 -31 -41 -30 51 0 c51 0 52 -1 63 -37 18 -57 26 -59 40 -9 l13 46 51 0 c55 1 55 0 -8 45 -18 13 -18 18 -7 56 7 22 10 43 7 46 -2 3 -21 -7 -40 -22 l-35 -27 -34 26 c-31 24 -47 31 -47 22z"/>
<path d="M980 1112 c0 -5 5 -24 12 -42 11 -32 10 -35 -28 -67 l-39 -33 48 0 c43 0 48 -3 57 -27 6 -16 14 -37 19 -48 l9 -20 7 20 c27 77 25 75 74 75 l46 1 -38 32 -38 33 15 42 c17 49 12 51 -34 17 -32 -24 -33 -24 -59 -6 -41 28 -51 33 -51 23z"/>
<path d="M1420 1116 c0 -2 6 -22 14 -44 l15 -40 -42 -29 -41 -28 51 -3 51 -3 12 -45 c14 -49 22 -48 39 8 12 36 14 37 64 40 l51 3 -42 27 -41 28 15 41 c8 23 12 44 9 47 -2 3 -21 -7 -40 -22 l-36 -28 -34 26 c-32 24 -45 31 -45 22z"/>
<path d="M1876 1078 l15 -42 -38 -33 -38 -32 47 -1 c45 0 47 -1 59 -37 18 -58 21 -59 39 -12 17 43 19 44 66 47 l48 3 -38 33 c-38 32 -39 33 -26 70 6 20 10 39 8 41 -2 3 -20 -6 -40 -20 l-35 -24 -36 25 c-20 13 -38 24 -41 24 -3 0 2 -19 10 -42z"/>
<path d="M2314 1098 c19 -68 18 -72 -20 -98 l-38 -25 51 -3 51 -3 12 -45 c14 -50 22 -48 40 9 11 35 13 37 56 37 24 0 44 3 44 8 0 4 -16 17 -36 30 -26 17 -34 28 -29 40 13 32 24 72 19 72 -3 0 -21 -11 -41 -25 l-37 -24 -32 24 c-40 31 -48 31 -40 3z"/>
</g>
<g id="layer106" fill="#3c3b6e" stroke="none">
<path d="M546 1078 l15 -43 -38 -32 -38 -33 48 0 c43 0 49 -3 58 -27 5 -16 12 -35 15 -43 4 -10 11 0 21 28 l15 42 51 0 51 0 -41 30 -42 31 15 41 c8 23 13 43 11 44 -2 2 -20 -8 -40 -23 l-36 -26 -35 27 c-19 14 -37 26 -40 26 -3 0 2 -19 10 -42z"/>
<path d="M984 1099 c19 -69 18 -73 -20 -99 l-38 -25 51 -3 c49 -3 50 -4 62 -43 14 -46 27 -43 37 6 6 35 7 35 58 35 l51 0 -38 33 c-36 30 -37 34 -27 67 15 53 13 55 -26 25 l-35 -27 -41 27 -41 27 7 -23z"/>
<path d="M1421 1113 c0 -4 6 -24 14 -43 13 -34 12 -36 -24 -67 l-36 -32 47 -1 c46 0 47 -1 59 -40 7 -22 16 -40 20 -40 4 0 11 17 16 38 8 36 10 37 58 40 l49 3 -37 32 -38 32 15 43 c16 46 16 46 -37 9 -28 -19 -29 -19 -55 0 -40 29 -52 35 -51 26z"/>
<path d="M1874 1097 c17 -74 18 -71 -21 -97 l-38 -25 49 -5 c45 -5 50 -8 60 -37 17 -48 23 -49 37 -4 12 39 13 40 62 43 l51 3 -42 27 -41 28 14 41 c8 23 15 43 15 45 0 3 -18 -8 -40 -22 l-40 -27 -36 28 -37 28 7 -26z"/>
<path d="M2310 1117 c0 -3 7 -23 15 -46 l14 -41 -41 -28 -42 -27 51 -3 c49 -3 50 -4 62 -43 14 -45 20 -44 37 4 10 29 15 32 60 35 l48 3 -37 32 -38 32 15 43 c8 23 13 42 10 42 -3 0 -21 -12 -40 -27 l-35 -26 -27 20 c-36 26 -52 35 -52 30z"/>
</g>
<g id="layer107" fill="#3c3b6e" stroke="none">
<path d="M655 1095 c-37 -30 -45 -30 -79 -4 -15 12 -29 19 -31 17 -2 -2 1 -21 7 -41 10 -33 9 -39 -8 -52 -63 -45 -63 -44 -11 -45 43 0 49 -3 58 -27 5 -16 12 -35 15 -43 4 -10 11 0 21 28 14 41 15 42 61 42 l47 1 -37 30 -37 30 14 44 c7 25 12 45 12 45 -1 0 -15 -11 -32 -25z"/>
<path d="M980 1117 c0 -2 6 -23 14 -45 l15 -41 -42 -31 -41 -30 51 0 51 0 15 -42 14 -43 13 42 c13 41 14 42 63 45 l51 3 -38 25 c-39 26 -39 30 -20 99 l7 24 -35 -26 c-19 -15 -38 -27 -42 -27 -4 0 -23 12 -42 26 -19 15 -34 24 -34 21z"/>
<path d="M1436 1077 l15 -42 -38 -32 -37 -32 49 -3 c48 -3 50 -4 61 -43 l12 -40 11 30 c6 17 14 36 16 43 3 7 23 12 52 12 l48 1 -24 20 c-13 11 -31 23 -39 28 -12 7 -13 14 -2 45 15 48 9 53 -29 25 l-30 -22 -40 26 -40 27 15 -43z"/>
<path d="M1985 1095 c-37 -30 -40 -30 -77 -4 -16 12 -31 19 -33 17 -3 -2 1 -21 7 -41 10 -33 9 -39 -8 -52 -63 -45 -63 -44 -8 -45 l51 0 13 -42 13 -43 14 43 15 42 51 0 51 0 -41 30 -42 31 15 41 c8 23 13 42 11 44 -1 2 -16 -8 -32 -21z"/>
<path d="M2311 1114 c0 -5 6 -25 14 -44 13 -34 12 -36 -24 -67 l-36 -32 47 -1 c47 0 47 -1 60 -41 l12 -42 18 42 c17 40 19 41 65 41 52 1 52 0 -11 45 -17 13 -18 19 -8 52 6 20 10 39 7 41 -2 2 -17 -5 -33 -17 -37 -26 -36 -26 -78 5 -19 15 -34 22 -33 18z"/>
</g>
<g id="layer108" fill="#f8fafe" stroke="none">
<path d="M643 1084 l-32 -26 -31 22 c-32 23 -36 17 -20 -24 8 -22 5 -28 -23 -50 l-32 -26 38 0 c34 0 40 -4 54 -37 l16 -38 12 35 c10 30 17 36 51 40 l39 5 -29 21 c-28 20 -29 23 -19 63 6 22 10 41 9 41 0 -1 -15 -12 -33 -26z"/>
<path d="M1434 1094 c20 -53 18 -70 -11 -90 l-28 -19 40 -5 c34 -4 41 -9 49 -37 5 -18 12 -33 16 -33 4 0 11 15 16 33 8 28 15 33 49 37 l40 5 -32 23 c-29 21 -31 25 -21 53 14 39 7 44 -26 18 l-27 -21 -36 28 c-30 23 -35 24 -29 8z"/>
<path d="M994 1084 c18 -48 16 -59 -16 -81 l-33 -23 42 0 c40 0 42 -2 56 -42 l14 -43 12 43 c11 41 13 42 54 42 40 1 41 1 22 16 -11 8 -26 19 -34 23 -11 7 -12 15 -2 41 14 42 9 47 -25 21 l-26 -21 -28 20 c-34 24 -44 25 -36 4z"/>
<path d="M1884 1076 c3 -13 8 -30 11 -38 3 -8 -8 -21 -27 -33 l-33 -20 42 -3 c37 -3 42 -6 48 -32 10 -43 22 -45 35 -5 11 33 14 35 53 35 l42 0 -32 23 c-35 24 -39 37 -22 69 16 29 4 33 -29 9 -30 -21 -30 -21 -55 -1 -33 26 -40 25 -33 -4z"/>
<path d="M2331 1068 c12 -45 13 -44 -23 -67 l-33 -21 41 0 c38 0 42 -3 56 -37 l15 -38 16 38 c14 33 20 37 54 37 l38 0 -32 26 c-28 22 -31 28 -23 50 16 42 12 47 -23 25 -32 -19 -33 -19 -57 -1 -35 27 -40 25 -29 -12z"/>
</g>


</svg>